<mxfile host="app.diagrams.net" modified="2023-04-12T00:41:10.910Z" agent="Mozilla/5.0 (Windows NT 10.0; Win64; x64) AppleWebKit/537.36 (KHTML, like Gecko) Chrome/111.0.0.0 Safari/537.36" version="21.1.6" etag="4abQLkd300Oy4hTJs_7o" type="github">
  <diagram name="Page-1" id="2eDMX8Met_-Xfei34ea0">
    <mxGraphModel>
      <root>
        <mxCell id="0" />
        <mxCell id="1" parent="0" />
      </root>
    </mxGraphModel>
  </diagram>
</mxfile>
